/* XPM */
static char *result[] = {
/* columns rows colors chars-per-pixel */
"60 60 253 2 ",
"   c #0D5378",
".  c #005C8C",
"X  c #005B86",
"o  c #085D90",
"O  c #086F99",
"+  c #2F6796",
"@  c #0C6CA5",
"#  c #0174AD",
"$  c #017AB4",
"%  c #0D6EB0",
"&  c #265F8B",
"*  c #7A7ABC",
"=  c #6D77B3",
"-  c #017BDC",
";  c #0A75CC",
":  c #397BDD",
">  c #3778DE",
",  c #2F7BDE",
"<  c #007CE2",
"1  c #3977E3",
"2  c #00849A",
"3  c #37839D",
"4  c #0489A5",
"5  c #0294AB",
"6  c #0285BB",
"7  c #009DB2",
"8  c #069CB9",
"9  c #198FBC",
"0  c #3C8DA7",
"q  c #0DA4BC",
"w  c #00A5BD",
"e  c #02BAB7",
"r  c #1DA4A9",
"t  c #23B4BA",
"y  c #4A96B6",
"u  c #51A2BE",
"i  c #08C5BE",
"p  c #0B82CC",
"a  c #008DCB",
"s  c #0385C8",
"d  c #009ACF",
"f  c #0493CC",
"g  c #0083D3",
"h  c #028CD3",
"j  c #0A8BD4",
"k  c #0182DC",
"l  c #008CDD",
"z  c #0A86D2",
"x  c #0193D5",
"c  c #0194DA",
"v  c #019ADC",
"b  c #0799D7",
"n  c #129AD8",
"m  c #3A8AD4",
"M  c #339BD8",
"N  c #2E93D2",
"B  c #00ACC4",
"V  c #07ABC6",
"C  c #01B3C6",
"Z  c #00BCC5",
"A  c #00B4CC",
"S  c #00BACC",
"D  c #0BB6CB",
"F  c #00A2D5",
"G  c #00ACD5",
"H  c #00A4DB",
"J  c #00ACDC",
"K  c #0AA7D7",
"L  c #18A5DD",
"P  c #00B3D5",
"I  c #01BBD5",
"U  c #00B3DB",
"Y  c #00BCDB",
"T  c #0ABAD8",
"R  c #1AB4CD",
"E  c #26B6C7",
"W  c #30A3DE",
"Q  c #2DB9D4",
"!  c #32AFCF",
"~  c #0083E2",
"^  c #008CE4",
"/  c #0A87E6",
"(  c #019DE3",
")  c #019DEB",
"_  c #0394E8",
"`  c #049CF1",
"'  c #1799E6",
"]  c #3985E3",
"[  c #2E91E8",
"{  c #01A3E3",
"}  c #01AAE5",
"|  c #02ACEA",
" . c #07A6EB",
".. c #15A5E1",
"X. c #02B3EB",
"o. c #00BDED",
"O. c #07B9E5",
"+. c #1BBAE3",
"@. c #06A7F2",
"#. c #19A6F8",
"$. c #00B4F4",
"%. c #01BDF4",
"&. c #03BDF7",
"*. c #1BB6F9",
"=. c #29ADE2",
"-. c #37AAE4",
";. c #28B4E4",
":. c #37B6ED",
">. c #4A98D5",
",. c #4F86D2",
"<. c #6799C8",
"1. c #709AD4",
"2. c #57A9C3",
"3. c #4AACDC",
"4. c #52ACDB",
"5. c #59A1D6",
"6. c #49B7DB",
"7. c #49A9C7",
"8. c #65A3CB",
"9. c #75A4C8",
"0. c #74A5DD",
"q. c #7FACD0",
"w. c #74B7DA",
"e. c #6BB3D1",
"r. c #5B97E5",
"t. c #4CACED",
"y. c #46ADE8",
"u. c #45B3E9",
"i. c #56B8E9",
"p. c #46BEF2",
"a. c #62A3E1",
"s. c #67A9E8",
"d. c #73ACE3",
"f. c #6DB4EE",
"g. c #78B5E9",
"h. c #76B8F6",
"j. c #6FAEF2",
"k. c #02C5C4",
"l. c #00CBCC",
"z. c #06C6C8",
"x. c #18C9C5",
"c. c #01C3D3",
"v. c #00CCD4",
"b. c #01C3DD",
"n. c #00CCDC",
"m. c #19C8DD",
"M. c #00D3D4",
"N. c #00D3DB",
"B. c #03D7DB",
"V. c #17D4D5",
"C. c #0CD1CD",
"Z. c #34CCDA",
"A. c #04E9D8",
"S. c #12E3DB",
"D. c #21EDD6",
"F. c #3CE5DF",
"G. c #3BF7D4",
"H. c #01C5E3",
"J. c #00CAE3",
"K. c #00CCED",
"L. c #04C6EA",
"P. c #1CCBE7",
"I. c #16C7E6",
"U. c #00DAE4",
"Y. c #00D5EB",
"T. c #03D6E6",
"R. c #19D9EB",
"E. c #01C3F5",
"W. c #0BC3F5",
"Q. c #00CCF4",
"!. c #00C4F9",
"~. c #01CCF9",
"^. c #17C5F7",
"/. c #01D5F3",
"(. c #00DCF6",
"). c #00D3F9",
"_. c #04D9F9",
"`. c #1CD4F9",
"'. c #18DAF8",
"]. c #29CEE6",
"[. c #2CD4EA",
"{. c #27D6E8",
"}. c #38D7E8",
"|. c #29C5F7",
" X c #24D4F9",
".X c #2AD5F9",
"XX c #3BD4F8",
"oX c #37C4ED",
"OX c #01E3F8",
"+X c #19E1F8",
"@X c #36E2E2",
"#X c #37E4FC",
"$X c #4AC5D6",
"%X c #70CAD8",
"&X c #47EADA",
"*X c #51EFD7",
"=X c #4DF4D7",
"-X c #53F4D3",
";X c #58FAD5",
":X c #49C8E6",
">X c #58C7EA",
",X c #48D9EB",
"<X c #58D7EB",
"1X c #47CBF4",
"2X c #54CAF2",
"3X c #59CAF2",
"4X c #48D8F9",
"5X c #55D7F9",
"6X c #78CAE4",
"7X c #66D4E7",
"8X c #77D8E7",
"9X c #79C6FD",
"0X c #65D7F5",
"qX c #76D6F8",
"wX c #69C9F3",
"eX c #45E3E4",
"rX c #59E4EA",
"tX c #58E3FA",
"yX c #4EE5FC",
"uX c #76E4F0",
"iX c #6EEAEE",
"pX c #7DE4DB",
"aX c #87B8D7",
"sX c #86A6DC",
"dX c #86B6E6",
"fX c #91BCF9",
"gX c #9495DF",
"hX c #96C6DA",
"jX c #8DD8DA",
"kX c #88C8E7",
"lX c #98D4E9",
"zX c #89DDF9",
"xX c #84DEF8",
"cX c #8FD0EC",
"vX c #B8DEF3",
"bX c #ADDAEE",
"nX c #88E5EE",
"mX c #9BE7EC",
"MX c #98F5E6",
"NX c #97E7F5",
"BX c #8EEFE8",
"VX c #A8E3E6",
"CX c #A9EAF6",
"ZX c #B7EBF9",
"AX c #AFF0F0",
"SX c #88EFDE",
"DX c #C5EDEB",
"FX c #C6EBF8",
"GX c #C9F2F9",
"HX c #D7F6FD",
"JX c #D3EEF4",
"KX c #F1FCFE",
"LX c None",
/* pixels */
"LXLXLXLXLXLXLXLXLXLXLXLXLXLXLXLXLXLXLXLXLXLXLXLXLXLXLXLXLXLXLXLXLXLXLXLXLXLXLXLXLXLXLXLXLXLXLXLXLXLXLXLXLXLXLXLXLXLXLXLX",
"LXLXLXLXLXLXLXLXLXLXLXLXLXLXLXLXLXLXLXLXLXLXLXLXLXLXLXLXLXfXsXLXLXLXLXLXLXLXLXLXLXLXLXLXLXLXLXLXLXLXLXLXLXLXLXLXLXLXLXLX",
"LXLXLXLXLXLXLXLXLXLXLXLXLXLXLXLXLXLXLXLXLXLXLXLXLXLXLXLXwXh.5.sXLXLXLXLXLXLXLXLXLXLXLXLXLXLXLXLXLXLXLXLXLXLXLXLXLXLXLXLX",
"LXLXLXLXLXLXLXLXLXLXLXLXLXLXLXLXLXLXLXLXLXLXLXLXLXLXLXqX&.d.M M dXLXLXLXLXLXLXLXLXLXLXLXLXLXLXLXLXLXLXLXLXLXLXLXLXLXLXLX",
"LXLXLXLXLXLXLXLXLXLXLXLXLXLXLXLXLXLXLXLXLXLXLXLXLXLX9X.X_ f.3.d u.dXLXLXLXLXLXLXLXLXLXLXLXLXLXLXLXLXLXLXLXLXLXLXLXLXLXLX",
"LXLXLXLXLXLXLXLXLXLXLXLXLXLXLXLXLXLXLXLXLXLXLXLXLX9X XX._ fX3.} U y.dXLXLXLXLXLXLXLXLXLXLXLXLXLXLXLXLXLXLXLXLXLXLXLXLXLX",
"LXLXLXLXLXLXLXLXLXLXLXLXLXLXLXLXLXLXLXLXLXLXLXLX9X*.~.*.` kXi.H.+.J u.dXLXLXLXLXLXLXLXLXLXLXLXLXLXLXLXLXLXLXLXLXLXLXLXLX",
"LXLXLXLXLXLXLXLXLXLXLXLXLXLXLXLXLXLXLXLXLXLXLXh.*.&.!.*.` cXi.H.H.K H :.dXLXLXLXLXLXLXLXLXLXLXLXLXLXLXLXLXLXLXLXLXLXLXLX",
"LXLXLXLXLXLXLXLXLXLXLXLXLXLXLXLXLXLXLXLXLXLXh.#.@.W.&.^.@.cXwXL.b.U L H -.g.LXLXLXLXLXLXLXLXLXLXLXLXLXLXLXLXLXLXLXLXLXLX",
"LXLXLXLXLXLXLXLXLXLXLXLXLXLXLXLXLXLXLXLXLXh.#.| &.&.&.^.$.cX>Xo.O.O.U K J -.d.LXLXLXLXLXLXLXLXLXLXLXLXLXLXLXLXLXLXLXLXLX",
"LXLXLXLXLXLXLXLXLXLXLXLXLXLXLXLXLXLXLXLXh.#. .$.&.$.~.`.&.bX7XH.+.Y O.J K F -.d.LXLXLXLXLXLXLXLXLXLXLXLXLXLXLXLXLXLXLXLX",
"LXLXLXLXLXLXLXLXLXLXLXLXLXLXLXLXLXLXLXh.#.` @.%.$.&.!.`.&.bX8Xb.b.O.Y U J K F -.d.LXLXLXLXLXLXLXLXLXLXLXLXLXLXLXLXLXLXLX",
"LXLXLXLXLXLXLXLXLXLXLXLXLXLXLXLXLXLXh.` ) @.$.&.$.!.~. X~.ZX8Xb.m.b.Y Y U P K F -.0.LXLXLXLXLXLXLXLXLXLXLXLXLXLXLXLXLXLX",
"LXLXLXLXLXLXLXLXLXLXLXLXLXLXLXLXLXh.@.` @.$.E.$.&.~.)..X~.ZX8Xb.m.v.b.b.Y U U K d W 0.LXLXLXLXLXLXLXLXLXLXLXLXLXLXLXLXLX",
"LXLXLXLXLXLXLXLXLXLXLXLXLXLXLXLXh.` ) @.$.~.!.!.!.)..XQ.qXKXDXB.B.].b.b.Y U P G K f W 0.LXLXLXLXLXLXLXLXLXLXLXLXLXLXLXLX",
"LXLXLXLXLXLXLXLXLXLXLXLXLXLXLXj.`  . .$.~._.!.!.). X/.zXHXHXHXDXV.B.V.b.P P A G F K d W 0.LXLXLXLXLXLXLXLXLXLXLXLXLXLXLX",
"LXLXLXLXLXLXLXLXLXLXLXLXLXLXj.` )  .%.E._._.!.). X~.NXHXyXZXuXZXDXV.B.V.M.c.I P G G K d W 0.LXLXLXLXLXLXLXLXLXLXLXLXLXLX",
"LXLXLXLXLXLXLXLXLXLXLXLXLXj._  .@.%.E.(._.~.)..X~.zXHXtX_.ZXuX/.ZXDXx.M.V.M.M.c.A G P K d W 0.LXLXLXLXLXLXLXLXLXLXLXLXLX",
"LXLXLXLXLXLXLXLXLXLXLXLXj._ )  .%.~.(.OX).~. X~.zXHXtX_._.NX0XR.U.CXDXx.l.V.C.B.v.I P P K f W 0.LXLXLXLXLXLXLXLXLXLXLXLX",
"LXLXLXLXLXLXLXLXLXLXLXs._ _ | X.E./.OXOX~. X~.zXHXtX_.XX).xXrXR.,XT.AXDXx.l.C.M.M.B.v.I G F d W 0.LXLXLXLXLXLXLXLXLXLXLX",
"LXLXLXLXLXLXLXLXLXLXs.^ (  .o.L./.(.OX)..X~.zXHXtX)..X_.).qX<X{.@XeXB.MXDXx.l.V.M.v.v.M.n.b.K d -.0.LXLXLXLXLXLXLXLXLXLX",
"LXLXLXLXLXLXLXLXLXs._ _  .o.Q./.OXOX(. X~.xXGXtX_..X)._.).0XeXF.F.F.&XA.MXVXi l.C.l.v.M.M.B.n.T d W 1.LXLXLXLXLXLXLXLXLX",
"LXLXLXLXLXLXLXLXa./ ( | o.Q./.(.OXOX`.Q.qXZXtX_. X).~.`.~.0XF.F.&X&X*X-XA.MXVXe k.z.l.M.M.N.N.N.c.G W 1.LXLXLXLXLXLXLXLX",
"LXLXLXLXLXLXLXr.^ ( | o.Q.(.(.(.OX XE.qXZXyX_.`.).).`.).).bXMXA.*X=X-X-X-XD.MXjXe k.x.l.M.M.B.N.v.c.A W 0.LXLXLXLXLXLXLX",
"LXLXLXLXLXLXr.k b  .o.Q./.(.(.OX'.!.qXZX4X_. X_.).`.~.4XNX8XbXMXG.;X-X-X-X-XD.pXjXe k.x.l.v.v.v.v.I D S Q w.LXLXLXLXLXLX",
"LXLXLXLXLXr.- c { O.L././.(.OX+X).qXCX4X_.`.).).`.~.4XZX7X6.! hXMX-X;X;X-X-X*XD.iXpXe i z.k.k.l.l.c.c.c.A Q w.LXLXLXLXLX",
"LXLXLXLX,.- j { X.E./.Y./.(.+X/.0XCX4X_.'.).). X).5XZX8Xb.8X$Xw hXSX;X;X;X-X=X&XV.iX%Xe k.i k.l.l.c.c.c.D B Q w.LXLXLXLX",
"LXLXLX,.; z b X.L.K./././.'./.2XzXXX).`._.). X~.5XHXnXH.J.nX%XC w hXSX;X;X-X=XG.F.B.7X%Xe i k.k.z.z.k.S S D w ! w.LXLXLX",
"LXLX,.# ; v } o.L.Y././.)._.1XwX X~.).).).).).0XJXnXn.].Y.CX8Xl.w 8 w.SX=X=X=XF.F.{.n.>Xe.e e e e Z Z S Z Z C C Q %XLXLX",
"LX,.; , ' =.;.oXoXXX1X4X4X4XwX5XXX4X4X4X4XXX0XHXlXn.:X,XR.GXmXV.$X! q q.pX=X&XeXF.}.}.P.3X2.r t t t t t t E E E E Z.6XLX",
"gX= <.<.<.e.w.aXhXlXbXvXvXJXFXZXFXFXZXFXGXDXKXbXZ.6XnXCXZXKXHXAXlXkXi.7.6X0X2X2X2X2X2X2X1Xh.4.6.6.4.4.4.4.4.4.i.i.i.xXLX",
"LX*     o @ % 9 N N >.r.>.dXJXqXoX<X3X5X7X,XmXJX$Xv.].}.@XGXNX,XXXQ G :X#X).!.E.&.!.E.E.:.:.X.$.| | { { { { } } X.2XLXLX",
"LXLX* & . @ # 6 f d F H L ( d.FX0XK.[.R.R.{.U.nXCX$Xv.].B.ZXiXY.I.I <XyX).W.W.W.W.W.^.p.-.X.O. . .{ b b v n n H i.LXLXLX",
"LXLXLX* & . @ % 6 n b L K =.v d.FX8XK.[.[.[.}.T.rXmX:XN.B.mX0XH.+.<XyXQ.W.E.!.E.E.W.p.-.| X. .{ v v c x h j x a.LXLXLXLX",
"LXLXLXLX* + . @ $ 6 a x H J =.H s.ZX0XK.[.{.{.}.B.rXmX:Xc.kX:XP <XyXQ.W.E.E.W.%.W.t.W | X.| { v x h a a p h a.LXLXLXLXLX",
"LXLXLXLXLX* + o @ $ s f d v } ;.{ 5.VXrXK.[.P.{.}.B.rXnXZ.%X6.:XtX~.W.E.E.E.E.W.y.]  .$.| } H c a g p ; g a.LXLXLXLXLXLX",
"LXLXLXLXLXLX* + . @ 6 6 a x F J ;.v >.lXrXY.[.P.].].J.eX8X%X7X4X~.W.E.!.E.E.W.t.: ( X.| | { { c a ; p s a.LXLXLXLXLXLXLX",
"LXLXLXLXLXLXLX* + . O # 6 a x F H L x >.lXrXY.{.m.P.].I.}.qX5X~.W.E.E.E.W.&.t.: ~  .| | { { v x z s g a.LXLXLXLXLXLXLXLX",
"LXLXLXLXLXLXLXLX<.+ X O # 6 a f b J ..c m cXrXY.}.P.P.].J.:X|.E.E.E.E.L.W.t.: ~  .} | { ( v h z p - a.LXLXLXLXLXLXLXLXLX",
"LXLXLXLXLXLXLXLXLX9.3 O O 6 6 a x H H ..v m kXrXU.{.P.I.L.>X|.!.E.E.&.*.t.: - / | } { ( v v h p g a.LXLXLXLXLXLXLXLXLXLX",
"LXLXLXLXLXLXLXLXLXLX9.+ 2 5 7 w G J H v ..l m kXrXY.{.].E.i.|.!.W.%.^.t.> < ~  .{ { v c x c j g a.LXLXLXLXLXLXLXLXLXLXLX",
"LXLXLXLXLXLXLXLXLXLXLX9.y 2 5 w P I b.O.U ..v m kX,XY.[.K.1X:.!.%.^.t.> ~ / ^ { { { c h j j g a.LXLXLXLXLXLXLXLXLXLXLXLX",
"LXLXLXLXLXLXLXLXLXLXLXLX9.3 2 q A P b.b.H.H.+.U W 6X,XK.T.2X|.&.+.t.> ~ / < { { v ( c h p g s.LXLXLXLXLXLXLXLXLXLXLXLXLX",
"LXLXLXLXLXLXLXLXLXLXLXLXLX9.y 4 q A I I b.H.J.I.H.;.7X4XY.2X:.&.t.] ~ / < ^ { ( v h h z g s.LXLXLXLXLXLXLXLXLXLXLXLXLXLX",
"LXLXLXLXLXLXLXLXLXLXLXLXLXLXaX0 4 q C I I b.J.H.L.H.;.>X}.1X:.t.] ~ / ~ < ( { ( v b j l s.LXLXLXLXLXLXLXLXLXLXLXLXLXLXLX",
"LXLXLXLXLXLXLXLXLXLXLXLXLXLXLXaXy 5 q C I b.n.H.J.L.J.I.:X3Xi.[ ~ / ~ < l { ( v c j l s.LXLXLXLXLXLXLXLXLXLXLXLXLXLXLXLX",
"LXLXLXLXLXLXLXLXLXLXLXLXLXLXLXLXaXy 5 q A I b.H.b.b.b.L.Y i.] ^ / ~ ~ < v c x c j ^ s.LXLXLXLXLXLXLXLXLXLXLXLXLXLXLXLXLX",
"LXLXLXLXLXLXLXLXLXLXLXLXLXLXLXLXLXaXu 5 V S c.b.b.b.b.H.O.:.#.^ ^ ~ < ^ c h j j l s.LXLXLXLXLXLXLXLXLXLXLXLXLXLXLXLXLXLX",
"LXLXLXLXLXLXLXLXLXLXLXLXLXLXLXLXLXLXaX7.7 V D c.I I b.H.H.u.' ~ ~ - ~ c x j j l f.LXLXLXLXLXLXLXLXLXLXLXLXLXLXLXLXLXLXLX",
"LXLXLXLXLXLXLXLXLXLXLXLXLXLXLXLXLXLXLXhX7.w V C A I c.b.b.u.[ ^ ~ - ^ c j h l f.LXLXLXLXLXLXLXLXLXLXLXLXLXLXLXLXLXLXLXLX",
"LXLXLXLXLXLXLXLXLXLXLXLXLXLXLXLXLXLXLXLXLX2.7 q w Z S b.I 3.[ ~ - - v j j ^ f.LXLXLXLXLXLXLXLXLXLXLXLXLXLXLXLXLXLXLXLXLX",
"LXLXLXLXLXLXLXLXLXLXLXLXLXLXLXLXLXLXLXLXLXLXu 5 q w C T I 4., - - c b b _ f.LXLXLXLXLXLXLXLXLXLXLXLXLXLXLXLXLXLXLXLXLXLX",
"LXLXLXLXLXLXLXLXLXLXLXLXLXLXLXLXLXLXLXLXLXLXLX2.5 8 q D P 5., < ~ n b _ g.LXLXLXLXLXLXLXLXLXLXLXLXLXLXLXLXLXLXLXLXLXLXLX",
"LXLXLXLXLXLXLXLXLXLXLXLXLXLXLXLXLXLXLXLXLXLXLXLXu 5 q V A 5., < ' ( _ h.LXLXLXLXLXLXLXLXLXLXLXLXLXLXLXLXLXLXLXLXLXLXLXLX",
"LXLXLXLXLXLXLXLXLXLXLXLXLXLXLXLXLXLXLXLXLXLXLXLXLXu 5 R B 5.1 ^  .) h.LXLXLXLXLXLXLXLXLXLXLXLXLXLXLXLXLXLXLXLXLXLXLXLXLX",
"LXLXLXLXLXLXLXLXLXLXLXLXLXLXLXLXLXLXLXLXLXLXLXLXLXLXu 7 B <.1 ) @.h.LXLXLXLXLXLXLXLXLXLXLXLXLXLXLXLXLXLXLXLXLXLXLXLXLXLX",
"LXLXLXLXLXLXLXLXLXLXLXLXLXLXLXLXLXLXLXLXLXLXLXLXLXLXLX2.8 8.] @.9XLXLXLXLXLXLXLXLXLXLXLXLXLXLXLXLXLXLXLXLXLXLXLXLXLXLXLX",
"LXLXLXLXLXLXLXLXLXLXLXLXLXLXLXLXLXLXLXLXLXLXLXLXLXLXLXLX2.<.[ 9XLXLXLXLXLXLXLXLXLXLXLXLXLXLXLXLXLXLXLXLXLXLXLXLXLXLXLXLX",
"LXLXLXLXLXLXLXLXLXLXLXLXLXLXLXLXLXLXLXLXLXLXLXLXLXLXLXLXLXcXkXLXLXLXLXLXLXLXLXLXLXLXLXLXLXLXLXLXLXLXLXLXLXLXLXLXLXLXLXLX",
"LXLXLXLXLXLXLXLXLXLXLXLXLXLXLXLXLXLXLXLXLXLXLXLXLXLXLXLXLXLXLXLXLXLXLXLXLXLXLXLXLXLXLXLXLXLXLXLXLXLXLXLXLXLXLXLXLXLXLXLX"
};
