/* XPM */
static char *_1251d1b3db740cb935defbaaac99e5aizLsU2sppvcqNLGb[] = {
/* columns rows colors chars-per-pixel */
"40 40 166 2 ",
"   c None",
".  c #F26F00",
"X  c #F67400",
"o  c #FA7E00",
"O  c #F87E11",
"+  c #F77F19",
"@  c #F67F20",
"#  c #F88800",
"$  c #FB830D",
"%  c #F98E0E",
"&  c #F79001",
"*  c #F99100",
"=  c #FF9B07",
"-  c #FA970D",
";  c #FF9B0D",
":  c #F78516",
">  c #FB8412",
",  c #FC8A13",
"<  c #F4821A",
"1  c #FD9410",
"2  c #F79B13",
"3  c #FE9C13",
"4  c #FD9318",
"5  c #FD9B1B",
"6  c #FDA501",
"7  c #FCAC02",
"8  c #F9A30D",
"9  c #FFAE0A",
"0  c #FCB400",
"q  c #F7BA00",
"w  c #FBBD01",
"e  c #FBB60C",
"r  c #FBBD0D",
"t  c #F6A211",
"y  c #FDAD14",
"u  c #FFAF18",
"i  c #FBB514",
"p  c #FCBD14",
"a  c #FDB61E",
"s  c #FDBC1C",
"d  c #F68223",
"f  c #F68B23",
"g  c #F2802E",
"h  c #FF8B29",
"j  c #F59524",
"k  c #FF9424",
"l  c #F89C25",
"z  c #F59A29",
"x  c #F28934",
"c  c #F29533",
"v  c #F19B30",
"b  c #F59539",
"n  c #F69E3D",
"m  c #F4A225",
"M  c #FDA421",
"N  c #F5A827",
"B  c #FBAC22",
"V  c #F3A62C",
"C  c #FFA128",
"Z  c #F6AE28",
"A  c #FCAF2E",
"S  c #FCBA23",
"D  c #FFB22A",
"F  c #FBBA28",
"G  c #F7AF34",
"H  c #F5B438",
"J  c #F9BD3A",
"K  c #FBC401",
"L  c #FBCC00",
"P  c #FBC30E",
"I  c #FCDE02",
"U  c #FCC312",
"Y  c #FECC14",
"T  c #FCC41B",
"R  c #FBCC1A",
"E  c #FFD616",
"W  c #FBD815",
"Q  c #FDD31C",
"!  c #FDDE1A",
"~  c #FEE215",
"^  c #FFEB14",
"/  c #FEE51B",
"(  c #FDEB1D",
")  c #FDF01E",
"_  c #FDC324",
"`  c #FCCF25",
"'  c #F6C52D",
"]  c #FCC52A",
"[  c #FCCB2B",
"{  c #F7D720",
"}  c #FCD122",
"|  c #FDDF24",
" . c #FDD32D",
".. c #FCD92A",
"X. c #FBC334",
"o. c #FBCD32",
"O. c #F9C238",
"+. c #FACF3C",
"@. c #FED434",
"#. c #FED33A",
"$. c #FDDB3C",
"%. c #FCE421",
"&. c #FEED24",
"*. c #FEE72D",
"=. c #FEEB2C",
"-. c #FDE235",
";. c #FDE933",
":. c #FDE13A",
">. c #F69741",
",. c #F39550",
"<. c #FFA343",
"1. c #FFAC44",
"2. c #F4BA46",
"3. c #F6BF4E",
"4. c #F4BC52",
"5. c #FFAC60",
"6. c #F1AB7D",
"7. c #F6C049",
"8. c #F8C34B",
"9. c #F9CE56",
"0. c #F7D15D",
"q. c #FACE61",
"w. c #F7CE69",
"e. c #F6D769",
"r. c #F9D06F",
"t. c #F5C976",
"y. c #F7DF76",
"u. c #F7D478",
"i. c #F8DE7F",
"p. c #F6D482",
"a. c #F7DB8D",
"s. c #F5D493",
"d. c #F4DB92",
"f. c #FAE586",
"g. c #F9EB84",
"h. c #F7E391",
"j. c #FAE795",
"k. c #F7E59B",
"l. c #FCEF9C",
"z. c #F0C5A2",
"x. c #F5DEB7",
"c. c #FFDCB9",
"v. c #F7ECA1",
"b. c #F9EDA7",
"n. c #FAEDAF",
"m. c #FAF1AE",
"M. c #F7EFB2",
"N. c #F8EEB4",
"B. c #FAF0B3",
"V. c #F9F2B8",
"C. c #FBF5B9",
"Z. c #FAF6B9",
"A. c #FAF7BB",
"S. c #FBF7BD",
"D. c #FBF6BC",
"F. c #FAF6BE",
"G. c #FBF9BC",
"H. c #FAF8BE",
"J. c #FCF8BF",
"K. c #FBF7C0",
"L. c #FAF9C1",
"P. c #FBFAC1",
"I. c #FDFDC6",
"U. c #FDFCC8",
"Y. c #FCFCCB",
"T. c #FDFFCB",
/* pixels */
"                                                                                ",
"                                                                                ",
"                                                                                ",
"                                                                                ",
"                                                                                ",
"                                                                                ",
"                                                                                ",
"                                                                                ",
"                                                                                ",
"                            g d 4 1 1 > + @                                     ",
"                          d = 0 e P r 0 9 = O +                                 ",
"                        h 6 P P P U T T T i 6 4 X                               ",
"                      k & U P r p w w w q _ i 6 5.6.                            ",
"                    j $ e U p U w u.h.q q 7 i 0 s.c.X                           ",
"                  v 5 % p P U p 0 d.T.n.A.k.i 0 F G <.x                         ",
"                  z , 1 U U s 0 p.S.G.B.t.u.F i 0 0 M :                         ",
"                  j > - p a e i L.a.4.L.7.6 0 w S i r 3 x                       ",
"                  j > 1 p p s 0 n.m.7.V.m.w.r._ K T U 9 f                       ",
"                  j % % s s S w 8.M.S.V.T.C.L.m.o.K R r 5                       ",
"                  m 3 : a s S _ w i q.9.B.b.' K.h.K [ U u                       ",
"                  N u o M ' _ _ o.` L w 0.G.e.C.j.K [ R p m                     ",
"                  m a >.# K  .[  .} f.l.i.S.P.m.+.Y } Q R Z                     ",
"                    z n ,.2...@.@.R u.B.n.b.Y.y.L ..! ! E                       ",
"                    c 6 x.z.q $.o.o.R Y @.L v.g.I %./ ~ Q                       ",
"                      t 1.b & O.#.#.#.....| I %./ / ( ^ `                       ",
"                        ; 3 4 2 X.$.:.-.*.*.=.&.( ( ^ ~                         ",
"                          C M 5 8 ' -.;.=.=.&.&.) ^ ^ {                         ",
"                            l D B 9 p Q / ( ( / ^ !                             ",
"                              V A X.] _ R E / / R                               ",
"                                  H J O.O.O.X.                                  ",
"                                                                                ",
"                                                                                ",
"                                                                                ",
"                                                                                ",
"                                                                                ",
"                                                                                ",
"                                                                                ",
"                                                                                ",
"                                                                                ",
"                                                                                "
};
