/* XPM */
static char *result[] = {
/* columns rows colors chars-per-pixel */
"80 80 171 2 ",
"   c #000000",
".  c #0B0000",
"X  c #00050B",
"o  c #00090F",
"O  c #120000",
"+  c #13050C",
"@  c #000B14",
"#  c #000018",
"$  c #000E19",
"%  c #000512",
"&  c #1C0A12",
"*  c #00121D",
"=  c #1D171E",
"-  c #230000",
";  c #2A0001",
":  c #210A07",
">  c #34111C",
",  c #000A20",
"<  c #001623",
"1  c #001926",
"2  c #001C2B",
"3  c #141522",
"4  c #071F31",
"5  c #271A23",
"6  c #07212F",
"7  c #002334",
"8  c #002638",
"9  c #002A3D",
"0  c #2D2929",
"q  c #252422",
"w  c #2B343A",
"e  c #383535",
"r  c #560000",
"t  c #650000",
"y  c #6A111B",
"u  c #771621",
"i  c #002E43",
"p  c #003046",
"a  c #00344B",
"s  c #00384F",
"d  c #14354B",
"f  c #1A3346",
"g  c #003750",
"h  c #003A53",
"j  c #003F5B",
"k  c #1F3B52",
"l  c #2A3748",
"z  c #363E44",
"x  c #203C55",
"c  c #00425D",
"v  c #14415A",
"b  c #004663",
"n  c #014A66",
"m  c #004D6C",
"M  c #00506F",
"N  c #004F70",
"B  c #005374",
"V  c #005679",
"C  c #005A7C",
"Z  c #165476",
"A  c #14587A",
"S  c #294F67",
"D  c #254E69",
"F  c #265068",
"G  c #295573",
"H  c #325B76",
"J  c #06637C",
"K  c #2E607F",
"L  c #4A4D50",
"P  c #55585A",
"I  c #61666A",
"U  c #6D6E6E",
"Y  c #636566",
"T  c #6B6E71",
"R  c #7B7D7F",
"E  c #870000",
"W  c #921620",
"Q  c #BA1821",
"!  c #DA171D",
"~  c #DA1E29",
"^  c #EC1D26",
"/  c #F61C23",
"(  c #CC202C",
")  c #DF2A3A",
"_  c #EB212C",
"`  c #EB2532",
"'  c #F62532",
"]  c #005E83",
"[  c #1C5F83",
"{  c #016285",
"}  c #056985",
"|  c #00648B",
" . c #056D8C",
".. c #1C658B",
"X. c #1E6186",
"o. c #006A94",
"O. c #006E9A",
"+. c #006790",
"@. c #1B6B93",
"#. c #057395",
"$. c #01739D",
"%. c #05799E",
"&. c #1D749F",
"*. c #2A6A8F",
"=. c #296D94",
"-. c #0075A3",
";. c #027AA6",
":. c #007CAC",
">. c #1A7CAA",
",. c #1877A4",
"<. c #017FB0",
"1. c #267EAC",
"2. c #2478A5",
"3. c #7D7F81",
"4. c #0482AD",
"5. c #0183B4",
"6. c #0086BA",
"7. c #0089BD",
"8. c #0E88BD",
"9. c #1183B5",
"0. c #1A87B9",
"q. c #268DBF",
"w. c #008DC3",
"e. c #0190C5",
"r. c #0094CC",
"t. c #0299CF",
"y. c #0097D0",
"u. c #009BD5",
"i. c #009EDA",
"p. c #0D9ED9",
"a. c #0E9DD7",
"s. c #1C9AD3",
"d. c #129EDA",
"f. c #2B8FC1",
"g. c #2791C5",
"h. c #2891C5",
"j. c #239AD3",
"k. c #01A1DE",
"l. c #00A5E3",
"z. c #01A8E7",
"x. c #09A8E7",
"c. c #00ADED",
"v. c #19AEEF",
"b. c #00AFF1",
"n. c #11AEF0",
"m. c #00B2F4",
"M. c #00B6FA",
"N. c #00B9FD",
"B. c #16B3F5",
"V. c #1CB2F5",
"C. c #2AB0F2",
"Z. c #8A8C8E",
"A. c #818385",
"S. c #8C8E90",
"D. c #8D9092",
"F. c #929496",
"G. c #9C9D9D",
"H. c #979899",
"J. c #9E9FA0",
"K. c #A3A4A5",
"L. c #A9AAAA",
"P. c #B3B4B5",
"I. c #BCBDBF",
"U. c #C2C3C4",
"Y. c #CDCECF",
"T. c #D3D4D4",
"R. c #E2E2E3",
"E. c #E9E9E9",
"W. c #F3F3F3",
"Q. c #FEFEFE",
"!. c None",
/* pixels */
"!.!.!.!.!.!.!.!.!.!.!.!.!.!.!.!.!.!.!.!.!.!.!.!.!.!.!.!.!.!.!.!.!.!.!.!.!.!.!.!.!.!.!.!.!.!.!.!.!.!.!.!.!.!.!.!.!.!.!.!.!.!.!.!.!.!.!.!.!.!.!.!.!.!.!.!.!.!.!.!.",
"!.!.!.!.!.!.!.!.!.!.!.!.!.!.!.!.!.!.!.!.!.!.!.!.!.!.!.!.!.!.!.!.!.!.!.!.!.!.!.!.!.!.!.!.!.!.!.!.!.!.!.!.!.!.!.!.!.!.!.!.!.!.!.!.!.!.!.!.!.!.!.!.!.!.!.!.!.!.!.!.",
"!.!.!.!.!.!.!.!.!.!.!.!.!.!.!.!.!.!.!.!.!.!.!.!.!.!.!.!.!.!.!.!.!.!.!.!.!.!.!.!.!.!.!.!.!.!.!.!.!.!.!.!.!.!.!.!.!.!.!.!.!.!.!.!.!.!.!.!.!.!.!.!.!.!.!.!.!.!.!.!.",
"!.!.!.!.!.!.!.!.!.!.!.!.!.!.!.!.!.!.!.!.!.!.!.!.!.!.!.!.!.!.!.!.!.!.!.!.!.!.!.!.!.!.!.!.!.!.!.!.!.!.!.!.!.!.!.!.!.!.!.!.!.!.!.!.!.!.!.!.!.!.!.!.!.!.!.!.!.!.!.!.",
"!.!.!.!.!.!.!.!.!.!.!.!.!.!.!.!.!.!.!.!.!.!.!.!.!.!.!.!.!.!.!.!.!.!.!.!.!.!.!.!.!.      !.!.!.!.!.!.!.!.!.!.!.!.!.!.!.!.!.!.!.!.!.!.!.!.!.!.!.!.!.!.!.!.!.!.!.!.",
"!.!.!.!.!.!.!.!.!.!.!.!.!.!.!.!.!.!.!.!.!.!.!.!.!.!.!.!.!.!.!.!.!.!.!.!.!.!.!.      X     !.!.!.!.!.!.!.!.!.!.!.!.!.!.!.!.!.!.!.!.!.!.!.!.!.!.!.!.!.!.!.!.!.!.!.",
"!.!.!.!.!.!.!.        !.!.!.!.!.!.!.!.!.!.!.!.!.!.!.!.!.!.!.!.!.!.!.!.!.!.      % @       !.!.!.!.!.!.!.!.!.!.!.!.!.!.!.!.!.!.!.!.!.!.!.!.!.!.!.!.!.!.!.!.!.!.!.",
"!.!.!.!.!.!.!.    * $     !.!.!.!.!.!.!.!.!.!.!.!.!.!.!.!.!.!.!.!.!.!.!.    X <     @     !.!.!.!.!.!.!.!.!.!.!.!.!.!.!.!.!.!.!.!.!.!.!.!.!.!.!.!.!.!.!.!.!.!.!.",
"!.!.!.!.!.!.!.  X     1       !.!.!.!.!.!.!.!.!.!.!.!.!.!.!.!.!.!.!.!.    @ <   g w.;.  1 !.!.X       !.!.!.!.!.!.!.!.!.!.!.!.!.!.!.!.!.!.!.!.!.!.!.!.!.!.!.!.!.",
"!.!.!.!.!.!.!.X 2 { h   < X     !.!.!.!.!.!.!.!.!.!.!.!.!.!.!.!.!.      *     o.l.N.r.< <     8 C p   !.!.!.!.!.!.!.!.!.!.!.!.!.!.!.!.!.!.!.!.!.!.!.!.!.!.!.!.!.",
"!.!.!.!.!.!.!.  a z.l.|     $     !.!.!.!.!.!.!.!.!.!.!.!.!.!.!.!.    <   7 w.M.b.c.l.g   b :.l.i.X !.!.!.!.!.!.!.!.!.!.!.!.!.!.!.!.!.!.!.!.!.!.!.!.!.!.!.!.!.!.",
"!.!.!.!.!.!.!.  B c.b.m.7.9   < X   !.!.!.!.!.!.!.!.!.!.!.!.!.!.  X <   b i.M.b.o.;.M.n   6.N.N.;.  !.!.!.!.!.!.!.!.!.!.!.!.!.!.!.!.!.!.!.!.!.!.!.!.!.!.!.!.!.!.",
"!.!.!.!.!.!.7   O.m.z.c.M.k.m   1     !.!.!.!.!.!.!.!.!.!.!.!.    <   ] z.M.z.|   O.M.|   :.m.z.n   !.!.!.!.!.!.!.!.!.!.!.!.!.!.!.!.!.!.!.!.!.!.!.!.!.!.!.!.!.!.",
"!.!.!.!.!.!.<   5.M.c.c.z.m.c.]   $     !.!.  X X o o X X     X <   | c.m.c.|     O.M.-.  ;.N.u.X !.!.!.!.!.!.!.!.!.!.!.!.!.!.!.!.!.!.!.!.!.!.!.!.!.!.!.!.!.!.!.",
"!.!.!.!.!.!.$   w.m.z.b.c.z.b.M.$.  @   $ * @ X X X X X X     1   | b.c.b.$.  9   O.N.:.  O.N.7.  !.!.!.!.!.!.!.!.!.!.!.!.!.!.!.!.!.!.!.!.!.!.!.!.!.!.!.!.!.!.!.",
"!.!.!.!.!.!.X   y.m.c.c.c.m.b.y.|   2 *                     1   ] c.c.m.w.  1 <   o.N.6.  O.N.$.  !.!.!.!.!.!.!.!.!.!.!.!.!.!.                        %   !.!.!.",
"!.!.!.!.!.!.    u.m.c.c.m.l.o.X   *     7 n | ;.5.7.7.7.:.i   n z.c.b.z.p   * *   $.N.7.  ;.N.B   !.!.!.!.!.!.!.!.!.!.      1 a n ] o.O.-.:.:.;.;.:.]   @ !.!.!.",
"!.!.!.!.!.!.    u.b.c.m.w.a   7     B 5.u.z.b.M.M.m.m.N.u.  i i.m.c.m.o.  1   1   :.N.5.  <.b.j   !.!.!.!.!.!.!.!.    b o.5.u.z.c.m.M.M.M.M.M.M.M.m.]   !.!.!.!.",
"!.!.!.!.!.!.    y.M.m.;.  * @   ] r.c.m.b.b.c.c.z.c.z.b.-.  r.m.z.m.y.*   X X *   7.N.-.  7.c.i !.!.!.!.!.!.!.  1 | r.z.m.M.m.m.b.c.c.z.z.c.z.z.m.-.X !.!.!.!.!.",
"!.!.!.!.!.!.*   r.M.o.  i   h w.b.m.c.c.c.c.c.c.b.c.b.b.a o.m.c.c.m.|   1   X @ 7 r.N.o.  u.z.1 !.!.    X X 7 | u.M.m.b.c.z.c.z.c.c.b.b.c.b.c.b.u.  2 !.!.!.!.!.",
"!.!.!.!.!.!.!.  7.:.  p   ] z.M.c.c.c.c.c.c.c.b.c.c.m.i.c z.m.z.m.u.2 o X   %   g z.b.B   4.i.i !.!.!.  2   | M.M.z.c.z.c.c.c.c.c.b.c.c.c.c.c.m.V   !.!.!.!.!.!.",
"!.!.!.!.!.!.!.* a $ 7   -.b.b.z.c.c.c.b.c.c.c.c.c.c.m.w.6.M.z.c.m.-.  1 X   1   C M.z.a   < B 9 !.!.!.!.X h g | l.M.c.c.c.b.b.c.c.c.c.c.c.c.m.w.  !.!.!.!.!.!.!.",
"!.!.!.!.!.!.!.X   7   -.m.c.c.c.c.c.c.c.c.c.c.c.c.c.b.i.z.b.c.b.z.b   *   X 1   7.N.w.*   2     !.!.!.!.7 n y.C i r.M.c.c.c.c.c.b.c.c.c.c.c.b.B   !.!.!.!.!.!.!.",
"!.!.!.!.!.!.!.  2   o.m.b.z.c.b.c.c.c.c.b.c.c.b.c.c.b.b.c.c.c.m.w.  < 2 2 7   N c.m.o.  C % 1 <   !.!.< :.b e.N.-.  :.m.b.c.c.c.c.c.c.c.c.m.r.* !.!.!.!.!.!.!.!.",
"!.!.!.!.!.!.  <   B c.c.c.c.c.c.c.c.c.c.c.c.b.c.c.c.c.c.c.c.c.b.y.B <       b i.m.k.i s z.5.  2 *   !.  u.:.V m.M.r.  o.c.m.z.b.c.c.c.c.c.m.o.  !.!.!.!.!.!.!.!.",
"!.!.!.!.!.!.@ X 2 u.m.z.c.c.c.c.c.b.b.c.c.c.c.c.b.c.c.c.b.c.c.c.m.c.r.;.O.<.z.c.m.-.  6.M.m.5.  1 %   X z.r.< z.c.m.i.9 ] z.b.c.b.c.c.c.b.z.c !.!.!.!.!.!.!.!.!.",
"!.!.!.!.!.  <   ;.m.c.c.b.c.c.b.c.c.c.c.c.b.b.c.c.b.b.c.c.c.c.c.c.c.m.m.m.M.c.m.y.  { b.c.z.M.:.  1   i c.l.7 y.m.z.M.l.i C c.b.z.b.c.c.m.w.  !.!.!.!.!.!.!.!.!.",
"!.!.!.!.!.%   h z.b.c.c.c.c.c.c.c.b.c.c.c.c.c.c.c.c.c.c.c.b.c.c.c.c.c.c.c.z.m.i.< B z.b.c.c.c.m.$.    ] b.b.m 5.M.c.z.m.i.2 ] b.c.c.c.c.m.-.  !.!.!.!.!.!.!.!.!.",
"!.!.!.!.  *   5.M.z.b.c.c.c.c.c.c.b.c.c.b.c.c.c.c.c.c.z.c.b.c.c.c.c.c.c.c.m.i.m -.c.m.c.c.c.c.c.b.|   5.m.m.] o.m.c.b.z.M.y.  O.m.c.c.c.c.B !.!.!.!.!.!.!.!.!.!.",
"!.!.!.!.$ X i l.b.c.c.c.b.c.b.c.c.c.c.c.c.c.c.c.c.c.c.c.b.c.c.b.c.c.c.c.c.c.i.k.m.b.z.b.c.c.c.c.m.w.  u.b.M.| ] m.c.b.c.c.m.6.  5.m.c.m.i.@ !.!.!.!.!.!.!.!.!.!.",
"!.!.!.!.<   O.m.b.b.c.c.c.b.c.c.c.c.c.b.c.c.c.c.m.m.c.z.c.m.m.z.c.c.c.c.c.c.m.m.c.c.c.b.b.c.c.c.b.] b c.b.m.+.m m.c.c.c.c.c.m.O.  u.m.m.w.  !.!.!.!.!.!.!.!.!.!.",
"!.!.!.@ 1   e.m.c.z.b.m.b.b.m.b.c.c.c.c.b.c.c.m.k.>.K H H 2.u.m.c.c.m.c.c.c.c.z.c.c.c.c.c.c.c.m.i.  ;.m.z.m.+.m m.c.c.c.c.c.m.z.j N z.N.;.  !.!.!.!.!.!.!.!.!.!.",
"!.!.!.<   c l.b.z.c.c.8.=.*.>.l.m.c.c.c.c.c.m.w.l O         0 5.m.c.c.c.c.c.b.c.c.c.b.c.c.b.z.m.$.  u.m.z.M.] m m.c.c.c.c.b.z.b.r.  :.N.|   !.!.!.!.!.!.!.!.!.!.",
"!.!.!.1   ] c.c.m.l.Z ;     - x y.m.c.c.z.m.r.-   L G.P.K.Y   - 4.m.c.b.c.c.c.c.c.c.c.c.c.c.m.i.  V c.c.c.b.] V m.c.b.c.z.c.c.b.m.O.  k.C !.!.!.!.!.!.!.!.!.!.!.",
"!.!.!.2   -.m.c.z.Z . # Z.G.l   l i.m.z.m.l.x   A.E.Q.Q.Q.W.G.  : y.m.z.b.c.c.b.c.b.c.c.c.c.m.|   6.m.c.b.c.N +.m.z.c.b.m.M.b.b.M.b.h B c !.!.!.!.!.!.!.!.!.!.!.",
"!.!.!.<   6.m.b.9.  z Y.Q.Q.R.T X ..b.c.b.>.  T W.Q.Q.Q.Q.Q.Q.D.  X.b.b.c.c.c.c.c.c.c.c.z.M.w.  h z.b.z.b.z.h ;.m.b.m.z.w.-.] ] | 6.o.  @ !.!.!.!.!.!.!.!.!.!.!.",
"!.!.!.@ 1 r.M.x.S   U.Q.Q.Q.Q.T.q 2 d.m.x.D   T.Q.Q.Q.Q.Q.Q.Q.E.0 8 p.m.c.c.c.c.c.c.c.c.m.i.p   ;.M.z.c.b.u.  7.N.z.:.p             < *   !.!.!.!.!.!.!.!.!.!.!.",
"!.!.$   9 u.M.s.  U W.Q.Q.Q.Q.Q.F.  0.N.j.  T W.Q.Q.Q.Q.Q.Q.Q.Q.F.  q.m.c.c.c.c.c.b.c.m.k.b   7 l.b.c.c.M.w.  i.i.c     % !.!.!.!.!.!.X   !.!.!.!.!.!.!.!.!.!.!.",
"!.!.*   p u.M.h.  H.Q.Q.Q.Q.Q.Q.U.  &.M.g.  G.Q.Q.Q.Q.Q.Q.Q.Q.Q.I.  1.m.c.c.c.c.c.c.c.b.C     5.M.c.c.c.m.-.2 7.p   7 !.!.!.!.!.!.!.!.!.!.!.!.!.!.!.!.!.!.!.!.!.",
"!.!.*   s k.M.q.  K.Q.Q.Q.Q.Q.Q.Y.  =.M.f.  L.Q.Q.Q.Q.Q.Q.Q.Q.Q.U.  2.m.c.c.b.c.c.c.c.c.b     5.z.b.b.b.c.C 2 7   < !.!.!.!.!.!.!.!.!.!.!.!.!.!.!.!.!.!.!.!.!.!.",
"!.!.*   a k.M.h.  H.Q.Q.Q.Q.Q.Q.U.  2.M.g.  G.Q.Q.Q.Q.Q.Q.Q.Q.Q.I.  1.m.c.c.c.c.c.c.c.b.t.V p   1 o.r.c.l.9   < <   !.!.!.!.!.!.!.!.!.!.!.!.!.!.!.!.!.!.!.!.!.!.",
"!.!.$   i u.M.s.  U W.Q.Q.Q.Q.Q.F.  0.M.j.  U W.Q.Q.Q.Q.Q.Q.Q.Q.F.  q.m.c.c.c.c.b.c.c.c.m.b.k.4.V     c ]   b 6.<     !.!.!.!.!.!.!.!.!.!.!.!.!.!.!.!.!.!.!.!.!.",
"!.!.!.  9 y.m.z.F   U.Q.Q.Q.Q.R.0 4 a.m.x.D   T.Q.Q.Q.Q.Q.Q.Q.E.e 6 p.m.c.c.c.c.c.b.b.c.c.c.m.m.c.u.<.N     r.m.p   $ !.!.!.!.!.!.!.!.!.!.!.!.!.!.!.!.!.!.!.!.!.",
"!.!.!.* $ e.m.m.9.  w Y.Q.Q.R.I   ..b.c.m.>.  I W.Q.Q.Q.Q.Q.Q.S.X [ b.c.c.b.c.b.c.c.c.c.c.c.c.c.b.m.m.c.y.w.c.b.{   < !.!.!.!.!.!.!.!.!.!.!.!.!.!.!.!.!.!.!.!.!.",
"!.!.!.1   5.m.c.c.A   , 3.Z.z X d i.m.z.b.l.x   R E.Q.Q.Q.W.G.  5 r.m.c.c.c.c.c.c.c.c.c.c.b.c.c.c.c.c.b.m.m.c.m.;.  < !.!.!.!.!.!.!.!.!.!.!.!.!.!.!.!.!.!.!.!.!.",
"!.!.!.6   $.M.c.b.l.A .       k u.m.c.c.c.m.e.-   w K.P.L.P   - <.m.z.c.c.c.c.c.c.b.c.b.c.c.c.c.c.c.c.c.c.c.c.m.w.  < !.!.!.!.!.!.!.!.!.!.!.!.!.!.!.!.!.!.!.!.!.",
"!.!.!.*   n 5.u.b.b.c.7.@.@.<.l.m.c.b.c.b.z.m.w.f .         5 5.m.c.b.m.m.c.c.c.c.b.c.c.c.c.c.b.c.c.c.c.c.b.z.m.r.  < !.!.!.!.!.!.!.!.!.!.!.!.!.!.!.!.!.!.!.!.!.",
"!.!.!.X   8 J %.z.c.c.M.b.c.b.b.z.c.z.c.c.c.c.m.l.,.G S G &.u.m.c.c.z.5.5.c.b.c.c.c.c.c.c.b.c.c.c.b.c.c.c.c.c.m.i.@ * < !.!.!.!.!.!.!.!.!.!.!.!.!.!.!.!.!.!.!.!.",
"!.!.!.X o % J #.c.u.#.r.m.c.m.m.m.m.m.m.m.m.b.b.M.N.b.c.c.m.m.c.c.m.e.} } r.m.c.c.c.c.c.b.c.b.c.c.c.c.c.c.b.c.m.k.9 $ < !.!.!.!.!.!.!.!.!.!.!.!.!.!.!.!.!.!.!.!.",
"!.!.!.!.$   n t.c.#.} #.z.c.u.k.i.i.i.i.p.d.d.d.i.u.x.b.c.z.c.c.b.m.7.} } r.b.c.c.c.b.c.c.c.c.c.b.c.c.b.c.c.c.m.k.i @ < !.!.!.!.!.!.!.!.!.!.!.!.!.!.!.!.!.!.!.!.",
"!.!.!.!.*   M c.c.%.J #.c.k.s p a a p d p a a a g 1 w.b.c.c.b.c.k.b.z.4.4.c.c.c.b.c.c.b.c.c.c.c.c.c.c.c.c.c.c.c.k.p % 1 !.!.!.!.!.!.!.!.!.!.!.!.!.!.!.!.!.!.!.!.",
"!.!.!.!.X $   t.m.k.4.t.m.z.m   1 $ = $ > u u 5 $ 7 u.b.c.c.b.e.J 7.b.b.m.m.b.c.c.c.c.c.c.b.b.c.c.c.b.c.c.c.c.m.k.i $ < !.!.!.!.!.!.!.!.!.!.!.!.!.!.!.!.!.!.!.!.",
"!.!.!.!.!.*   $.m.b.m.b.c.m.$.  7 & @ y ~ _ _ ` r ] v.b.c.b.z.#.#.#.k.m.k.k.z.b.c.b.c.c.c.c.c.c.b.c.c.c.c.c.c.b.i.1 * < !.!.!.!.!.!.!.!.!.!.!.!.!.!.!.!.!.!.!.!.",
"!.!.!.!.!.%   p k.z.c.c.c.m.k.p + 3 ; ! / ^ ' ( ; e.m.z.c.c.c.:.J 4.c.z.%.J e.b.c.c.c.c.b.c.b.c.c.c.c.c.c.c.c.m.r.  < !.!.!.!.!.!.!.!.!.!.!.!.!.!.!.!.!.!.!.!.!.",
"!.!.!.!.!.  X   } %.7.b.c.c.m.7.-   W ` ` _ Q - $.V.c.c.c.c.b.l.7.k.m.t.}  .4.b.c.b.b.c.c.c.c.c.c.c.c.c.c.c.c.m.w.  < !.!.!.!.!.!.!.!.!.!.!.!.!.!.!.!.!.!.!.!.!.",
"!.!.!.!.!.!.X   2 } #.z.c.c.c.m.8.9 r E E t   &.v.b.c.c.b.c.c.b.M.b.b.z.4.J e.b.c.c.c.c.c.b.c.b.b.c.c.m.m.c.c.m.:.  1 !.!.!.!.!.!.!.!.!.!.!.!.!.!.!.!.!.!.!.!.!.",
"!.!.!.!.!.!.  @ % n ;.z.m.c.c.c.m.k.4.} } $.j.V.c.c.c.b.c.c.c.c.c.c.c.b.k.t.b.b.b.c.c.c.c.c.c.c.b.c.c.b.c.c.c.b.]   1 !.!.!.!.!.!.!.!.!.!.!.!.!.!.!.!.!.!.!.!.!.",
"!.!.!.!.!.!.!.o *   e.m.c.c.c.c.z.m.V.C.C.V.m.c.c.c.c.c.b.c.c.b.c.b.c.c.m.m.c.c.c.c.c.b.b.c.c.b.c.c.c.c.c.c.b.z.p   % !.!.!.!.!.!.!.!.!.!.!.!.!.!.!.!.!.!.!.!.!.",
"!.!.!.!.!.!.!.  <   o.m.c.c.c.c.c.c.c.c.c.c.z.c.c.c.c.c.c.c.c.c.c.c.c.c.z.c.b.c.c.c.c.c.c.b.c.c.c.c.c.c.b.z.m.r.  @   !.!.!.!.!.!.!.!.!.!.!.!.!.!.!.!.!.!.!.!.!.",
"!.!.!.!.!.!.!.!.X *   7.m.c.c.c.c.c.c.c.c.c.b.b.b.c.c.b.c.c.c.c.b.c.b.c.b.b.c.c.c.c.c.c.c.c.c.c.b.c.c.b.c.c.m.o.  * !.!.!.!.!.!.!.!.!.!.!.!.!.!.!.!.!.!.!.!.!.!.",
"!.!.!.!.!.!.!.!.!.%   7 k.m.z.c.c.c.c.b.c.c.c.c.c.c.b.c.b.c.c.b.c.c.b.c.c.c.c.c.b.c.c.m.c.c.b.c.c.c.b.c.z.m.l.a   o !.!.!.!.!.!.!.!.!.!.!.!.!.!.!.!.!.!.!.!.!.!.",
"!.!.!.!.!.!.!.!.!.  1   B c.c.c.c.c.c.c.c.b.c.c.c.c.c.c.c.c.c.c.b.c.c.c.c.b.b.c.c.c.c.c.b.c.c.c.c.c.c.c.c.m.<.  < X !.!.!.!.!.!.!.!.!.!.!.!.!.!.!.!.!.!.!.!.!.!.",
"!.!.!.!.!.!.!.!.!.!.  <   o.m.c.c.c.b.c.c.b.c.b.b.c.c.b.c.c.c.c.c.c.c.c.c.c.c.c.c.c.c.c.c.c.c.c.c.c.c.c.m.z.c   * !.!.!.!.!.!.!.!.!.!.!.!.!.!.!.!.!.!.!.!.!.!.!.",
"!.!.!.!.!.!.!.!.!.!.!.X 1   -.m.c.c.c.c.c.c.c.c.c.c.c.c.b.c.c.b.c.c.b.c.c.b.c.c.b.c.c.b.c.c.b.c.c.c.c.c.m.;.  2   !.!.!.!.!.!.!.!.!.!.!.!.!.!.!.!.!.!.!.!.!.!.!.",
"!.!.!.!.!.!.!.!.!.!.!.!.@ 1   ;.m.c.c.b.c.c.c.c.c.c.c.c.c.c.c.c.c.c.b.c.c.b.c.c.b.c.c.b.c.c.b.c.c.b.c.b.u.< $ % !.!.!.!.!.!.!.!.!.!.!.!.!.!.!.!.!.!.!.!.!.!.!.!.",
"!.!.!.!.!.!.!.!.!.!.!.!.  @ 1   -.m.b.z.b.c.c.b.b.c.b.c.c.b.b.c.c.c.c.c.c.c.c.c.c.c.c.c.c.c.c.c.c.c.b.c.N   *   !.!.!.!.!.!.!.!.!.!.!.!.!.!.!.!.!.!.!.!.!.!.!.!.",
"!.!.!.!.!.!.!.!.!.!.!.!.!.  @ 1   o.c.m.z.b.c.c.c.c.b.c.c.c.c.c.c.b.b.c.c.c.c.b.c.c.c.c.c.b.b.b.c.c.m.+.  *   !.!.!.!.!.!.!.!.!.!.!.!.!.!.!.!.!.!.!.!.!.!.!.!.!.",
"!.!.!.!.!.!.!.!.!.!.!.!.!.!.  @ 1   V k.m.c.c.c.c.c.c.c.c.b.c.c.c.c.c.c.c.b.c.c.b.c.c.b.c.c.c.z.c.m.$.  2 X !.!.!.!.!.!.!.!.!.!.!.!.!.!.!.!.!.!.!.!.!.!.!.!.!.!.",
"!.!.!.!.!.!.!.!.!.!.!.!.!.!.!.  % 1   i 7.m.m.z.z.c.b.c.c.c.c.c.c.c.c.c.c.c.c.c.c.c.c.c.b.c.z.m.c.O.  2 o !.!.!.!.!.!.!.!.!.!.!.!.!.!.!.!.!.!.!.!.!.!.!.!.!.!.!.",
"!.!.!.!.!.!.!.!.!.!.!.!.!.!.!.!.!.X *     | k.m.m.c.z.c.b.c.c.b.c.b.b.c.c.b.c.c.c.c.c.c.z.c.m.l.]   1 X   !.!.!.!.!.!.!.!.!.!.!.!.!.!.!.!.!.!.!.!.!.!.!.!.!.!.!.",
"!.!.!.!.!.!.!.!.!.!.!.!.!.!.!.!.!.!.  * <   9 -.l.m.m.b.z.z.c.c.c.c.c.c.c.b.c.b.c.c.z.c.M.b.w.h   1     !.!.!.!.!.!.!.!.!.!.!.!.!.!.!.!.!.!.!.!.!.!.!.!.!.!.!.!.",
"!.!.!.!.!.!.!.!.!.!.!.!.!.!.!.!.!.!.!.  X 1     p $.u.c.M.m.m.c.c.z.c.c.c.z.z.c.b.m.M.c.w.V     1   !.!.!.!.!.!.!.!.!.!.!.!.!.!.!.!.!.!.!.!.!.!.!.!.!.!.!.!.!.!.",
"!.!.!.!.!.!.!.!.!.!.!.!.!.!.!.!.!.!.!.!.!.  $ <     @ V 4.u.z.b.m.m.m.m.M.m.m.b.z.y.:.m     % <   !.!.!.!.!.!.!.!.!.!.!.!.!.!.!.!.!.!.!.!.!.!.!.!.!.!.!.!.!.!.!.",
"!.!.!.!.!.!.!.!.!.!.!.!.!.!.!.!.!.!.!.!.!.!.!.  $ $         j ] $.:.5.6.6.<.$.| b       X * o   !.!.!.!.!.!.!.!.!.!.!.!.!.!.!.!.!.!.!.!.!.!.!.!.!.!.!.!.!.!.!.!.",
"!.!.!.!.!.!.!.!.!.!.!.!.!.!.!.!.!.!.!.!.!.!.!.!.!.X X % * @                       @ * % X   !.!.!.!.!.!.!.!.!.!.!.!.!.!.!.!.!.!.!.!.!.!.!.!.!.!.!.!.!.!.!.!.!.!.",
"!.!.!.!.!.!.!.!.!.!.!.!.!.!.!.!.!.!.!.!.!.!.!.!.!.!.!.!.X X @ < 1 1 1 < < 1 1 < $ X X !.!.!.!.!.!.!.!.!.!.!.!.!.!.!.!.!.!.!.!.!.!.!.!.!.!.!.!.!.!.!.!.!.!.!.!.!.",
"!.!.!.!.!.!.!.!.!.!.!.!.!.!.!.!.!.!.!.!.!.!.!.!.!.!.!.!.!.!.!.!.  X   X   X   !.!.!.!.!.!.!.!.!.!.!.!.!.!.!.!.!.!.!.!.!.!.!.!.!.!.!.!.!.!.!.!.!.!.!.!.!.!.!.!.!.",
"!.!.!.!.!.!.!.!.!.!.!.!.!.!.!.!.!.!.!.!.!.!.!.!.!.!.!.!.!.!.!.!.!.!.!.!.!.!.!.!.!.!.!.!.!.!.!.!.!.!.!.!.!.!.!.!.!.!.!.!.!.!.!.!.!.!.!.!.!.!.!.!.!.!.!.!.!.!.!.!.",
"!.!.!.!.!.!.!.!.!.!.!.!.!.!.!.!.!.!.!.!.!.!.!.!.!.!.!.!.!.!.!.!.!.!.!.!.!.!.!.!.!.!.!.!.!.!.!.!.!.!.!.!.!.!.!.!.!.!.!.!.!.!.!.!.!.!.!.!.!.!.!.!.!.!.!.!.!.!.!.!.",
"!.!.!.!.!.!.!.!.!.!.!.!.!.!.!.!.!.!.!.!.!.!.!.!.!.!.!.!.!.!.!.!.!.!.!.!.!.!.!.!.!.!.!.!.!.!.!.!.!.!.!.!.!.!.!.!.!.!.!.!.!.!.!.!.!.!.!.!.!.!.!.!.!.!.!.!.!.!.!.!."
};
