/* XPM */
static char *af34a9da03e84450c4919a25f3199b7daohMn8p9Ih04HnUJ[] = {
/* columns rows colors chars-per-pixel */
"50 42 202 2 ",
"   c None",
".  c #01000B",
"X  c black",
"o  c #190D0F",
"O  c #000214",
"+  c #01021C",
"@  c #000A17",
"#  c #00121E",
"$  c #131A1D",
"%  c #1A1C1D",
"&  c #161419",
"*  c #200000",
"=  c #2F0100",
"-  c #291906",
";  c #3B1300",
":  c #321200",
">  c #211E18",
",  c #382608",
"<  c #2C2417",
"1  c #25241B",
"2  c #2B251B",
"3  c #2D291D",
"4  c #332615",
"5  c #3A2B14",
"6  c #342C1C",
"7  c #392B18",
"8  c #30211D",
"9  c #3B331D",
"0  c #190D23",
"q  c #00182B",
"w  c #1D1E24",
"e  c #0F2C25",
"r  c #1C2626",
"t  c #1A3135",
"y  c #2C2B24",
"u  c #252422",
"i  c #322E22",
"p  c #23302B",
"a  c #333125",
"s  c #3A3523",
"d  c #393728",
"f  c #353A2B",
"g  c #3D3B2B",
"h  c #373629",
"j  c #2B3938",
"k  c #590D1F",
"l  c #450519",
"z  c #412300",
"x  c #462E07",
"c  c #422D0C",
"v  c #482F08",
"b  c #532800",
"n  c #4C330C",
"m  c #5B3C0A",
"M  c #513508",
"N  c #422E16",
"B  c #4C3317",
"V  c #5A3A1B",
"C  c #553A17",
"Z  c #6D3F00",
"A  c #603B12",
"S  c #512926",
"D  c #453C2B",
"F  c #483A28",
"G  c #423F30",
"H  c #344A2E",
"J  c #2A463E",
"K  c #3D4133",
"L  c #64430C",
"P  c #6B470C",
"I  c #6D480B",
"U  c #734C0D",
"Y  c #7B4A06",
"T  c #644213",
"R  c #6C4910",
"E  c #734B11",
"W  c #7B4F11",
"Q  c #724616",
"!  c #4D452A",
"~  c #4A4329",
"^  c #524629",
"/  c #424333",
"(  c #494A34",
")  c #4C4A3A",
"_  c #524C34",
"`  c #5A4A32",
"'  c #535136",
"]  c #595136",
"[  c #55543A",
"{  c #5C553C",
"}  c #5C5B3C",
"|  c #5D5837",
" . c #4C5937",
".. c #605129",
"X. c #6D592F",
"o. c #705621",
"O. c #634531",
"+. c #625535",
"@. c #645935",
"#. c #6B5C36",
"$. c #6B5D3A",
"%. c #496938",
"&. c #597D3F",
"*. c #6B622B",
"=. c #75663D",
"-. c #766B3D",
";. c #7B6B3C",
":. c #78663F",
">. c #243943",
",. c #005458",
"<. c #254747",
"1. c #3B595B",
"2. c #2D575A",
"3. c #005A61",
"4. c #1B5D72",
"5. c #295B62",
"6. c #376E64",
"7. c #5B5940",
"8. c #625C42",
"9. c #526157",
"0. c #427158",
"q. c #656243",
"w. c #696244",
"e. c #6E6946",
"r. c #726B45",
"t. c #756D4A",
"y. c #7A744C",
"u. c #75724C",
"i. c #7D7752",
"p. c #59787F",
"a. c #626E7B",
"s. c #767A71",
"d. c #804E08",
"f. c #84530D",
"g. c #835312",
"h. c #885510",
"j. c #816625",
"k. c #886C33",
"l. c #827036",
"z. c #847242",
"x. c #86754B",
"c. c #817A4F",
"v. c #8A7847",
"b. c #937E4A",
"n. c #907943",
"m. c #837C52",
"M. c #837754",
"N. c #878246",
"B. c #978243",
"V. c #99824C",
"C. c #9A8648",
"Z. c #858154",
"A. c #8C8459",
"S. c #8C8355",
"D. c #938451",
"F. c #938A5A",
"G. c #998D5C",
"H. c #988855",
"J. c #9B925D",
"K. c #A58C47",
"L. c #A28949",
"P. c #A99048",
"I. c #A18951",
"U. c #AD9354",
"Y. c #A89759",
"T. c #B39955",
"R. c #BD9F5C",
"E. c #B69855",
"W. c #9E9562",
"Q. c #95876D",
"!. c #A59E6C",
"~. c #AAA468",
"^. c #B6AC6D",
"/. c #B7A466",
"(. c #B1A971",
"). c #BBB37A",
"_. c #C1A35A",
"`. c #D6B65F",
"'. c #CBAD61",
"]. c #C4AA69",
"[. c #DAB76B",
"{. c #DAB662",
"}. c #C9AC70",
"|. c #C7B86F",
" X c #E2BE6D",
".X c #D8C579",
"XX c #EBC66E",
"oX c #ECC96F",
"OX c #EEC773",
"+X c #EFC973",
"@X c #F5CE7A",
"#X c #F4CC75",
"$X c #E9D771",
"%X c #F8CF73",
"&X c #9E9B85",
"*X c #BAAB8C",
"=X c #D9BE8C",
"-X c #D4C884",
";X c #E7DB8C",
":X c #F5D593",
">X c #EEE295",
",X c #DDD5C1",
/* pixels */
"                                                                                                    ",
"                                                                                                    ",
"                                                                                                    ",
"                                              A V       V                                           ",
"                                        $ 8 m W T T W g.h.E N q                                     ",
"                                        < n I P U U I I I U Q                                       ",
"                                        c m L P I P I I I I d.g.B                                   ",
"                                  % < c v v M P P h.E I E W B 7 B %                                 ",
"                                    5 v n x m n d.Y * ; ; b d.4                                     ",
"                                  2 n n , , n N Z | c.y.r.} T m <                                   ",
"                                  4 n = ` r.o N 5 y.F.S.F.G.| z u %                                 ",
"                                  6 : _ J.c.+ 7 # p ( q.u.A.y.: 2                                   ",
"                                  o ` J.M._ ] y r.b.U.U.V.c.S.6 &                                   ",
"                                  . u.i.b.r...* K.@X%X#X#XOXV.@                                     ",
"                                    } Z.m.r.v.M.X.j. XXX+XE.^     a                                 ",
"                                  l O.c.M.../.,Xa.4.Q.XX[.1.s.  r ( g                               ",
"                                  S k t.m.p L.=Xs.&X:X#X@X*Xi.O ] ~                                 ",
"                                      D J.J.A./.b.o.k.Y.]. XY.+ -.` ^       r D.-.                  ",
"                                      q a e.G.;X>X-X(.!.).;XN.0 @.v.K.l.  @.C.$XY.                  ",
"                                  t <.<.j D p 8.G.(.|.-X.XN.+     #.r.l.K.K.C.'.N.                  ",
"                                j >.2.0.,.Y.R.v.' w.e.t.  + g     w B.P.B.;.{ Y.                    ",
"                                q 5.6.0.3.'.XXT.h       y g       s ;.=.] g m.H.                    ",
"                              +.U.9.J 5.5._.{.{.!       h         1 _ { _ w.J.                      ",
"                              x.'.5 B q.D.[.}.}._     y a         h ] { w.m.{                       ",
"                              m.^.@ u 7 V D a.a.>.    i         i ] w.M.t.                          ",
"                              i.~.  h f K K ) / -.=.d d       w _ } 8.7.                            ",
"                              I.T.  a / [ K g @ z.b.z.                                              ",
"                              E.oX*.e  .( d . e.!.$.#.                                              ",
"                              R.XX$.%.&.Z.q.[ W.w.O                                                 ",
"                              +.=.` H %.K y ' O @ D                                                 ",
"                                    3 / D   X d n.v.                                                ",
"                                    @.T.I.    +.V.$.                                                ",
"                                  e.~.H.      m.~.7.                                                ",
"                                  [ (.A.      _ [                                                   ",
"                                  6 6         . - 6                                                 ",
"                                1 9 ! ^       1 6 s s                                               ",
"                                1 2 i s 3     > 1 1 1                                               ",
"                                                                                                    ",
"                                                                                                    ",
"                                                                                                    ",
"                                                                                                    ",
"                                                                                                    "
};
