/* XPM */
static char *_f15a88332794194f77e5107f41496cacaKOb2CaYXsIYq7W[] = {
/* columns rows colors chars-per-pixel */
"50 50 57 1 ",
"  c #1F1515",
". c #251919",
"X c #2D1E1E",
"o c #342323",
"O c #392626",
"+ c #3D2929",
"@ c #422D2D",
"# c #463030",
"$ c #4C3434",
"% c #4F3838",
"& c #503737",
"* c #543A3A",
"= c #5A3E3E",
"- c #5D4141",
"; c #634545",
": c #684747",
"> c #664848",
", c #6A4848",
"< c #694A4A",
"1 c #6E4B4B",
"2 c #6C4C4C",
"3 c #6F4E4E",
"4 c #704E4E",
"5 c #704F4F",
"6 c #734F4F",
"7 c #725050",
"8 c #765151",
"9 c #755252",
"0 c #795353",
"q c #7B5555",
"w c #7A5656",
"e c #7C5555",
"r c #7C5757",
"t c #7E5858",
"y c #825A5A",
"u c #855D5D",
"i c #865C5C",
"p c #865E5E",
"a c #895F5F",
"s c #8B6060",
"d c #8C6161",
"f c #8C6262",
"g c #8D6363",
"h c #8E6363",
"j c #926464",
"k c #936767",
"l c #946666",
"z c #966969",
"x c #986969",
"c c #9B6C6C",
"v c #9C6D6D",
"b c #A06F6F",
"n c #A17070",
"m c #A47272",
"M c #A67474",
"N c #A97575",
"B c #AC7878",
/* pixels */
"@&@.$$###.@%#$$X@%$#o$$$$O@*$$$$O+&$#o%$#$XO$$$##X",
";3;$7>,,,#,22,4$>22,$q,,3&33,,>3&%3,>&q>,3$>3,2>2$",
",,-*3;>>>$1>>;2$3,>;&t;>,*33>:>3*;,,--q;>2*;,>>;,*",
",>--3-;;;*q-;;>$8>;;=t-;>%y2---;*;>;-,q*;>*q;>;>,$",
"yt,;bppye*kpe87#tp81&ztyy=jmpdtp>qy4;;vpqq*sp37,>$",
"+=$+-==&@+****$++$*&+*=&@##;==&=O#;=*#-=-;$*=#-$$X",
"=>;,;;;-.;3$;3;:>#7;,;>;O>>;;;;;#33>,,,#3,>,-@1,3$",
"34>:>>,;+,,*:3;>>&0;>,>;&q,,;,>3$83>,,3&33>,;=3;,$",
"1;--;;;;@,>*8:-;;=q*-;;;&8=-;;;>&t;=-;;&8;;;-;3;>%",
"jbtyte31#y8*pa0e3;Bpsq87=Msatq88$zvdpte;dpee4,p47*",
"O,==*&+@X;;$&4>;;#qq73,;#;;-;=&&O+3,;-=@&;;*$#*$#o",
"*-=---;%&1;>;;&*3;*-O*;;>;#$>;;>-$>--;-@1;,*&4;;>#",
":3,,,,2-;q>,,3-;w;>2=3>>>2*>3>,,;&7>,,,$4>,-;3;>,$",
"1;-;;;;-10*;;;-;3-;;&,;;;,*,;-;;-*,-;;;*8->=38-;>$",
"jjeqq77;8B0eqq,7d478;e8325*pgreq3,dqq44*d84-qj3q8=",
";a88q,>-@dye57>@e333*->*$%+*q87,;+q8>-;#1,=&#3>,-#",
"-=$>-;;;,O,---*O----;---;-;=X>-;$@>-O>;>-+>;;---;+",
",2;83>>>2-7>,,>$4,3,,>>,>3>>#3>,-$33#3>,;*7>3,,>,$",
"7;-q---;;-8-;>*,>-;;;;;;>;>>%7->*-,;&8;>-;7=--;;>$",
"p7-Nkqtq7;kqqq;qzt7qq784,3,;-s5q;;p7*d87,4Meayq43*",
"-;@>s73,>+;,-;*@q7-;>=;&#*+OX;3;$#,-+;3=-@,,;:;&$X",
"#;==***% ;-@-;=;$@3=-=-*O>-;;**=+,;;:--@;>-;*#>;>#",
",3,,2,3;O>3*83>,>=t;,,,>$r;>>,,3%34,>,3&q1;1;*3;2#",
"7;-;;;;;@3,%82;;;=q-;;>;$3-;;;;>$q;=;>>%e;;;;;,;>$",
"zdqq777>$t3*dq33;3n>733>;nqq8438%cgq878=de78>,t33%",
",d883,;$O83$,p3w,$csyqq7Opp083;;+,g8373$;q,>-$7-#o",
"**$X--=--X-;=*-O-;%$O,-->O*-----#$*=$#>--=o%;-*--O",
">3;*3>,>,$,>>,3%,,3>*r>,3=33;,:3$;33;-8>,3&>,,,,3$",
";>-=3-;;;*3;;;,$,>;;=q->,*8>-;;,*;,>->8-;>$3;;>;,$",
"p3>4d3743-p3537$d733;z,77*zd4857-q73-qk373-p333,7$",
"34=$suq87$qt83,O3q3;optq5=8cqp37-;3;$%gy8>O88;,-%O",
">=->$*o*--#@-*-+$-%@>%-o$;%%%%*#O-=---*$**-*##;--+",
"0:>:,3$,,2-;3;3#;2-;3;3%73,32,2-=3,,,,3,3,,3;=1;2#",
"y;>>;>$>>>=,2;,$>,-=4;,*3;;;>;>->>;;;;;;;;>;-33;>%",
"b64323*e22-t8>3$73;;q;3*dt84333-pt32333522>3-q8>5*",
"dxpyqq*4q,-3p77#8q--pq3*8dt8873-;pu7q7:;>;>=O,p88#",
"#=-===-#&3;;->$*,-;;O-;>--+$>-->$O;-;--O,;;$-3--;O",
",41:,>:-3q;>>2->8;>2*2,,,3*;3,>3>=8>3,>$7>,=,8>,3$",
"e>;->>>-38-;;;=17-;>*>;;;>%>;-;;*-2-;;;$7;>=35-;,#",
"vp6e643-yM8e4q;8g773-u3233*pdqqq,8d7q32=d,8-4d778*",
"8gpt88,-$dpp08;=s58,%,>-%*-,gteq;-pq3;5$5,=$-p873#",
";*-*->;>>#;=;#$,%O;->--;>O3;----@>-;*=5;;;#3>--;>O",
"7,,-87>,>,7,3=>7;-q>2,,>,%q>>,>,=6:3-;8;32$8>3,,3#",
"p->-t2-;;;3-;*;>-,7*;-;;>*t---;;-8->=>3--;-p*;-->#",
"j8q;ps7827k2q-4q;,Mypq07q%Bkpy8q;dq8;3jqyq*Bjupqr*",
",r5>-q33>-q,;&;4-%q73,-35*3yq>,7-;14;*8;83-3p7375#",
";;;;>-;;;>->$5,;>,---;$3;3;->O-;,&=,>>;@;;,;--@;>#",
"3>>>>,,>,>>2*7,,:>3,,:=7>>,,,$3>3*87>,;*7>>>,;-2,$",
"p*;;;;;;>,>,-p->---;-;-p=---;&,;:*q3----5-;;>;;;;$",
"cksssqtr2;;>@cckjkggyq-Mzgkpp=yte#gnspq-juq5>-5sq*"
};
